<?xml version="1.0" encoding="iso-8859-1"?>
<!-- Generator: Adobe Illustrator 16.0.0, SVG Export Plug-In . SVG Version: 6.00 Build 0)  -->
<!DOCTYPE svg PUBLIC "-//W3C//DTD SVG 1.1//EN" "http://www.w3.org/Graphics/SVG/1.1/DTD/svg11.dtd">
<svg version="1.1" id="Capa_1" xmlns="http://www.w3.org/2000/svg" xmlns:xlink="http://www.w3.org/1999/xlink" x="0px" y="0px"
	 width="100px" height="100px" viewBox="0 0 890.98 890.98" style="enable-background:new 0 0 890.98 890.98;"
	 xml:space="preserve">
<g>
	<g>
		<path d="M540.252,671.663c-0.491,0.486-11.929,12.413-33.964,15.204c-21.066,2.626-46.305-7.934-50.079-28.288
			c-0.097-0.272-0.424-0.383-0.424-0.656c21.216-8.59,42.227-33.704,42.227-44.483c0-26.865-20.341-32.117-55.587-32.117
			c-44.744,0-55.7,6.292-55.7,32.117c0,12.693,21.339,36.003,42.678,43.992c-0.164,0.437-0.656,0.655-0.766,1.094
			c-3.939,20.956-28.89,31.023-49.463,28.343c-21.886-2.791-33.268-14.718-33.705-15.102c-5.144-5.745-14.007-6.238-19.752-1.039
			c-5.745,5.144-6.238,14.007-1.04,19.752c0.711,0.819,18.273,20.025,50.939,24.185c3.393,0.438,6.84,0.656,10.286,0.656
			c21.395,0,42.843-8.973,56.632-25.061c14.127,16.032,36.013,25.061,57.352,25.061c3.379,0,6.676-0.219,9.958-0.656
			c32.761-4.158,50.394-23.364,51.091-24.185c5.157-5.684,4.706-14.391-0.971-19.588
			C554.436,665.693,545.464,666.076,540.252,671.663z M442.423,647.034c-18.33,0-41.474-27.029-41.693-33.596
			c0-13.562,0-18.11,41.693-18.11c41.582,0,41.582,8.372,41.582,17.782C482.705,620.06,459.342,647.034,442.423,647.034z"/>
		<path d="M552.727,620.88c4.049,0,7.347-3.393,7.347-7.331c0-4.104-3.298-7.387-7.347-7.387c-3.979,0-7.332,3.282-7.332,7.387
			C545.395,617.487,548.747,620.88,552.727,620.88z"/>
		<path d="M534.303,656.446c3.979,0,7.263-3.339,7.263-7.333c0-4.049-3.281-7.332-7.263-7.332c-3.995,0-7.347,3.283-7.347,7.332
			C526.956,653.107,530.307,656.446,534.303,656.446z"/>
		<path d="M567.501,649.113c0,3.994,3.296,7.333,7.331,7.333c3.994,0,7.276-3.339,7.276-7.333c0-4.049-3.283-7.332-7.276-7.332
			C570.797,641.781,567.501,645.064,567.501,649.113z"/>
		<path d="M334.688,606.162c-3.994,0-7.332,3.282-7.332,7.387c0,3.938,3.338,7.331,7.332,7.331c3.995,0,7.277-3.393,7.277-7.331
			C341.966,609.444,338.683,606.162,334.688,606.162z"/>
		<path d="M323.526,649.113c0-4.049-3.338-7.332-7.276-7.332c-4.049,0-7.332,3.283-7.332,7.332c0,3.994,3.283,7.333,7.332,7.333
			C320.188,656.446,323.526,653.107,323.526,649.113z"/>
		<path d="M356.739,656.446c3.994,0,7.332-3.339,7.332-7.333c0-4.049-3.338-7.332-7.332-7.332c-3.938,0-7.332,3.283-7.332,7.332
			C349.407,653.107,352.799,656.446,356.739,656.446z"/>
		<path d="M341.09,502.366c0.164-2.188,4.487-53.84-32.72-82.457c-14.062-10.752-30.859-16.223-49.791-16.223
			c-22.981,0-40.927,8.159-41.694,8.48c-2.407,1.122-4.049,3.501-4.103,6.156c-0.055,2.106-1.149,51.761,34.033,77.478
			c16.086,11.654,35.072,17.563,56.357,17.563h0.054c18.877,0,32.61-4.87,33.212-5.034
			C339.011,507.399,340.816,505.047,341.09,502.366z M296.934,460.428c-9.739,0-17.673-7.906-17.673-17.592
			c0-9.794,7.934-17.619,17.673-17.619c9.74,0,17.673,7.825,17.673,17.619C314.608,452.521,306.674,460.428,296.934,460.428z"/>
		<path d="M680.83,411.729c-0.726-0.328-18.714-8.48-41.747-8.48c-18.987,0-35.744,5.473-49.807,16.224
			c-37.191,28.615-32.884,80.268-32.665,82.455c0.233,2.683,2.025,5.035,4.61,5.966c0.588,0.164,14.376,5.034,33.308,5.034
			c21.34,0,40.271-5.91,56.356-17.619c35.074-25.661,34.089-75.315,34.048-77.396C684.88,415.232,683.278,412.852,680.83,411.729z
			 M660.311,460.428c-9.752,0-17.727-7.906-17.727-17.592c0-9.794,7.975-17.619,17.727-17.619c9.74,0,17.619,7.825,17.619,17.619
			C677.93,452.521,670.052,460.428,660.311,460.428z"/>
		<path d="M886.055,569.939c-22.406-6.941-44.443-11.503-65.822-14.3c15.689-54.724,14.239-120.588-16.948-201.252
			c52.637-95.479,29.819-268.9,28.767-276.587c-1.244-9.548-7.372-17.756-16.127-21.723c-8.81-4.049-18.986-3.201-27.044,2.107
			l-172.245,113.7c-49.066-22.078-114.451-35.483-175.196-35.483c-61.392,0-123.712,12.913-173.722,35.702L82.613,57.746
			c-8.043-4.979-18.001-5.581-26.702-1.505C47.376,60.29,41.412,68.388,40.154,77.8c-0.985,7.194-22.489,171.342,36.276,277.053
			C48.812,435.996,47.801,501.736,63.6,556.59c-19.137,2.853-38.767,7.175-58.683,13.351c-3.721,1.149-5.745,5.034-4.596,8.755
			c1.148,3.722,5.143,5.8,8.754,4.596c19.944-6.175,39.642-10.367,58.874-13.076c4.542,12.976,10.027,25.333,16.36,37.098
			c-22.023,6.252-43.896,14.582-65.604,25.114c-3.502,1.696-4.924,5.854-3.229,9.355c1.204,2.47,3.666,3.94,6.293,3.94
			c1.039,0,2.079-0.221,3.063-0.713c22.051-10.677,44.279-19.041,66.658-25.148c5.827,9.59,12.201,18.789,19.055,27.632
			c-19.616,9.364-39.382,22.119-58.683,39.43c-2.845,2.571-3.064,7.005-0.547,9.904c1.423,1.531,3.338,2.297,5.253,2.297
			c1.641,0,3.337-0.595,4.706-1.805c19.219-17.264,38.834-29.793,58.19-38.773c37.48,44.401,86.491,79.857,135.339,111.654
			c38.52,25.114,114.082,67.246,186.635,67.246c57.189,0,132.135-26.592,190.955-67.793
			c42.528-29.841,93.729-65.796,133.369-113.658c21.217,9.11,42.816,22.353,63.936,41.324c1.383,1.21,3.011,1.805,4.706,1.805
			c1.93,0,3.829-0.766,5.197-2.297c2.585-2.9,2.354-7.333-0.492-9.904c-21.202-19.013-42.979-32.583-64.455-42.131
			c6.456-8.501,12.477-17.398,18.057-26.646c24.678,6.217,49.176,15.107,73.441,26.864c0.973,0.492,2.024,0.712,3.052,0.712
			c2.57,0,5.103-1.471,6.292-3.939c1.711-3.501,0.232-7.659-3.215-9.355c-23.938-11.593-48.082-20.519-72.389-26.927
			c6.143-11.497,11.571-23.535,16.031-36.242c21.448,2.619,43.567,7.093,65.987,14.033c3.721,1.149,7.591-0.874,8.754-4.596
			C891.813,574.974,889.734,571.09,886.055,569.939z M748.938,335.893c-5.402,7.852-6.457,17.919-2.735,26.729
			c32.938,78.551,35.004,138.964,16.634,189.507c-99.46,0.802-174.666,35.895-184.939,43.637c-3.051,2.299-3.72,6.676-1.354,9.794
			c1.354,1.806,3.434,2.784,5.58,2.784c1.479,0,2.955-0.432,4.2-1.416c9.097-6.818,78.845-38.309,170.713-40.482
			c-4.528,9.924-9.891,19.451-15.95,28.684c-48.628-4.432-97.749,1.261-146.98,17.271c-2.352,0.768-4.171,1.369-5.483,1.752
			c-3.722,1.04-5.842,4.924-4.814,8.646c1.039,3.721,4.924,5.744,8.646,4.809c1.477-0.376,3.459-1.033,5.977-1.854
			c44.621-14.588,89.215-20.341,133.411-17.364c-4.911,6.511-10.164,12.878-15.759,19.13c-51.311-8.14-95.506,1.572-118.323,6.606
			l-4.526,0.985c-3.774,0.82-6.184,4.54-5.377,8.314c0.821,3.776,4.651,6.185,8.331,5.362l4.651-0.984
			c22.021-4.925,59.804-13.256,103.727-8.111c-28.944,29.396-64.934,56.453-104.329,84.111
			c-49.242,34.472-113.056,57.615-158.794,57.615c-42.404,0-99.309-21.175-156.104-58.162
			c-39.163-25.505-76.369-51.892-106.395-82.504c47.042-7.079,87.86,1.859,111.208,7.003l4.706,1.032
			c3.721,0.821,7.496-1.586,8.317-5.362c0.82-3.774-1.587-7.495-5.363-8.314l-4.65-1.04c-23.829-5.205-71.075-15.581-125.381-5.31
			c-5.636-6.366-10.957-12.92-15.908-19.696c46.563-4.13,93.591,1.354,140.688,16.688c2.518,0.82,4.542,1.479,5.964,1.854
			c3.611,0.876,7.605-1.143,8.646-4.809c1.094-3.722-1.094-7.604-4.815-8.646c-1.312-0.383-3.173-0.984-5.472-1.752
			c-51.651-16.797-103.153-22.282-154.093-16.605c-5.951-9.383-11.204-19.205-15.689-29.483
			c95.259,0.711,168.305,33.636,177.661,40.618c1.204,0.985,2.681,1.416,4.159,1.416c2.134,0,4.268-0.979,5.581-2.783
			c2.353-3.118,1.751-7.495-1.423-9.794c-10.492-7.914-88.858-44.396-191.561-43.63c-17.591-50.229-17.03-111.571,12.038-190.689
			c3.01-8.263,1.97-17.489-2.791-24.869c-38.191-58.983-40.873-152.273-38.574-207.044l159.222,98.352
			c8.316,5.17,18.932,5.553,27.686,1.012c43.718-22.843,104.453-36.468,162.342-36.468c57.791,0,122.299,14.281,164.252,36.414
			c9.028,4.787,20.025,4.24,28.507-1.396l146.475-96.709C784.229,193.824,781.657,288.455,748.938,335.893z"/>
	</g>
</g>
<g>
</g>
<g>
</g>
<g>
</g>
<g>
</g>
<g>
</g>
<g>
</g>
<g>
</g>
<g>
</g>
<g>
</g>
<g>
</g>
<g>
</g>
<g>
</g>
<g>
</g>
<g>
</g>
<g>
</g>
</svg>
